<?xml version="1.0" encoding="utf-8"?>
<!-- Generator: Adobe Illustrator 27.5.0, SVG Export Plug-In . SVG Version: 6.00 Build 0)  -->
<svg version="1.1" xmlns="http://www.w3.org/2000/svg" xmlns:xlink="http://www.w3.org/1999/xlink" x="0px" y="0px"
	 viewBox="0 0 500 500" style="enable-background:new 0 0 500 500;" xml:space="preserve">
<g id="BACKGROUND">
	<g>
		<rect style="fill:#A5AFC6;" width="500" height="500"/>
		<rect y="373.467" style="fill:#FFFFFF;" width="500" height="126.533"/>
		<path style="fill:#CFD6E5;" d="M500,297.235c0,0-3.932-21.433-23.406-21.863c-19.473-0.429-23.573,21.863-23.573,21.863
			s-9.279-13.82-18.604-5.116c-9.325,8.704-2.407,20.239-2.407,20.239s-7.487-4.29-13.48,1.952c-5.993,6.242,0,15.094,0,15.094
			s-17.188-34.56-45.285-26.19c-28.097,8.37-29.282,39.1-29.282,39.1s-0.61-16.072-21.108-15.714
			c-20.498,0.358-21.15,15.714-21.15,15.714s1.113-30.303-28.071-39.1c-29.184-8.797-46.013,15.126-46.013,15.126
			s-4.242-14.272-16.768-15.126c-12.525-0.854-15.285,9.143-15.285,9.143s4.231-26.63-27.249-31.911
			c-31.48-5.28-44.453,25.97-44.453,25.97s-6.516-30.44-29.827-33.903c-23.312-3.463-35.732,14.818-35.732,14.818
			s1.659-10.586-7.053-14.818c-8.712-4.232-14.861,7.934-14.861,7.934S30.993,234.216,0,249.455v124.011h500V297.235z"/>
		<g>
			<path style="fill:#CFD6E5;" d="M422.004,425.108c-0.101-2.346,6.949-2.388,10.077-2.522c3.128-0.134,11.223-0.157,11.348,2.744
				c0.124,2.901-10.446,1.918-13.142,2.034C427.59,427.48,422.099,427.324,422.004,425.108z"/>
			<path style="fill:#CFD6E5;" d="M434.179,419.738c-0.05-1.173,3.474-1.194,5.038-1.261c1.564-0.067,5.612-0.078,5.674,1.372
				c0.062,1.45-5.223,0.959-6.571,1.017C436.972,420.924,434.226,420.846,434.179,419.738z"/>
		</g>
		<g>
			<path style="fill:#CFD6E5;" d="M47.724,478.104c-0.181-4.211,12.471-4.285,18.085-4.526c5.614-0.241,20.142-0.281,20.365,4.924
				c0.224,5.206-18.747,3.443-23.586,3.65C57.75,482.361,47.895,482.081,47.724,478.104z"/>
			<path style="fill:#CFD6E5;" d="M30.443,464.075c-0.09-2.105,6.235-2.143,9.042-2.263c2.807-0.121,10.071-0.141,10.183,2.462
				s-9.374,1.721-11.793,1.825C35.455,466.203,30.528,466.063,30.443,464.075z"/>
		</g>
	</g>
</g>
<g id="OBJECTS">
	<g>
		<path style="fill:#CFD6E5;" d="M310.998,452.601c0,3.063,24.072,5.545,53.767,5.545c29.694,0,53.767-2.483,53.767-5.545
			c0-3.063-24.072-5.545-53.767-5.545C335.07,447.055,310.998,449.538,310.998,452.601z"/>
		<g>
			<g>
				<path style="fill:#191919;" d="M340.974,436.901v7.395c0,0-8.917-0.657-11.053,3.122c-2.136,3.78-2.359,6.952,4.432,6.952
					c6.791,0,12.214,0,15.09,0c2.876,0,0-17.469,0-17.469H340.974z"/>
				<path style="fill:#191919;" d="M388.468,436.901v7.395c0,0-8.917-0.411-11.053,3.369c-2.136,3.78-2.359,6.705,4.432,6.705
					c6.791,0,12.214,0,15.09,0c2.876,0,0-17.469,0-17.469H388.468z"/>
				<g>
					<path style="fill:#258399;" d="M353.304,306.53c-1.356,0.483,6.163,13.691,6.163,13.691s0,0,0.64,18.981
						c0.282,8.371,1.32,18.226,2.392,26.63c1.821-9.16,3.826-17.426,5.972-23.518l-5.229-31.297
						C363.243,311.017,354.66,306.046,353.304,306.53z"/>
					<path style="fill:#E5906E;" d="M366.369,275.356c9.053-0.181,18.751-2.925,26.298-5.677
						c-3.248-12.795-6.577-34.011-6.577-34.011h-39.928l-3.95,36.845c0,0-0.056,0.123-0.151,0.339
						C348.811,274.246,357.56,275.532,366.369,275.356z"/>
					<path style="fill:#36BCC6;" d="M395.247,277.69c-0.807-1.631-1.691-4.508-2.58-8.011c-7.546,2.753-17.244,5.496-26.298,5.677
						c-8.81,0.176-17.558-1.11-24.309-2.504c-1.556,3.523-14.983,34.999-13.919,69.462c1.129,36.576,10.126,98.039,10.126,98.039
						s7.025,2.177,13.805,0c0,0,4.098-42.678,10.428-74.521c-1.072-8.404-2.11-18.259-2.392-26.63
						c-0.64-18.981-0.64-18.981-0.64-18.981s-7.519-13.208-6.163-13.691c1.356-0.483,9.939,4.488,9.939,4.488l5.229,31.297
						c0,0,10.839,47.669,13.181,60.98s3.698,37.059,3.698,37.059s8.381,3.41,15.037,0c0,0,8.258-49.877,9.737-87.593
						C411.604,315.044,399.002,285.278,395.247,277.69z"/>
				</g>
			</g>
			<path style="fill:#FF485E;" d="M374.073,79.443c-35.251,0-36.976,38.024-38.086,56.943c-1.109,18.92-1.171,32.169,4.191,32.662
				c5.362,0.493,5.547-4.56,5.547-4.56s0.924,11.866,10.477,12.157c9.552,0.291,13.558-10.925,13.558-10.925s0.801,5.3,4.314,5.053
				c3.513-0.246,4.02-6.626,4.02-6.626s2.512,8.844,12.372,7.612c9.86-1.232,9.614-17.256,9.614-17.256s1.048,7.707,6.163,7.428
				c5.115-0.279,5.423-15.686,5.423-40.337S398.107,79.443,374.073,79.443z"/>
			<path style="fill:#FFCCB3;" d="M313.555,180.512c0,0-1.171-9.306-0.74-11.832c0.431-2.527,13.435-14.647,12.572-16.783
				c-0.863-2.136-9.367,3.965-9.367,3.965s3.02-19.597,0.493-19.721c-2.527-0.123-3.793,15.917-3.793,15.917
				s-1.322-16.903-3.356-16.903s-1.109,16.903-1.109,16.903s-2.034-15.485-4.314-14.807c-2.28,0.678,0,15.777,0,15.777
				s-3.02-12.543-5.177-11.849c-2.157,0.694,0.123,17.781,1.602,21.471c1.479,3.69,2.465,6.216,2.342,9.483
				c-0.123,3.266,0,10.107,0,10.107L313.555,180.512z"/>
			<path style="fill:#FFFFFF;" d="M411.234,263.931c0,0,1.91,3.968-1.109,14.753c-3.02,10.785-4.376,18.986-1.356,24.53
				c3.02,5.544,7.703,6.777,10.97,4.312c3.266-2.465,1.972-6.348,0-11.832c-1.972-5.485-2.034-11.771,1.109-17.995
				c3.143-6.224,4.56-12.51,2.342-16.886c-2.218-4.375-2.218-4.375-2.218-4.375L411.234,263.931z"/>
			<g>
				<path style="fill:#5A56B7;" d="M332.821,229.568c4.103-2.318,7.172-4.253,7.172-4.253l3.451-17.379
					C343.444,207.936,336.885,212.618,332.821,229.568z"/>
				<path style="fill:#FFCCB3;" d="M373.682,195.117c12.703-0.387,19.154-7.768,22.197-13.21c-6.768-1.745-12.523-4.566-13.98-7.867
					c-0.872-1.975-1.361-6.96-1.637-12.108c-1.945,2.219-4.595,4.612-7.429,5.329c-2.154,0.545-3.955,0.428-5.365,0.074
					c-0.267,2.446-0.913,4.954-2.197,7.198c-2.852,4.986-8.676,6.263-14.659,7.967C353.27,187.517,359.719,195.543,373.682,195.117z
					"/>
				<path style="fill:#FFCCB3;" d="M372.833,167.262c2.834-0.717,5.484-3.11,7.429-5.329c-0.386-7.221-0.35-14.761-0.35-14.761
					l-13.543,8.135c0,0,1.778,5.81,1.099,12.03C368.878,167.69,370.68,167.807,372.833,167.262z"/>
				<path style="fill:#5A56B7;" d="M398.292,209.415c-1.787,0.062,1.048,7.272-5.423,14.298
					c-6.037,6.555-30.153,16.483-54.128,12.63c-0.366,4.249-0.59,8.117-0.35,8.446c0.493,0.678,2.28,1.233,11.31,1.849
					c9.03,0.616,15.571-0.986,15.571-0.986l1.561,3.803l43.291-11.63C410.125,237.825,400.079,209.353,398.292,209.415z"/>
				<path style="fill:#806BCE;" d="M432.31,211.017c-7.457-15.16-17.132-26.5-27.239-27.486c-3.076-0.3-6.23-0.86-9.191-1.624
					c-3.044,5.442-9.494,12.823-22.197,13.21c-13.964,0.425-20.412-7.601-23.069-12.617c-3.557,1.013-7.171,2.176-10.25,4.359
					c-8.258,5.855-20.707,19.721-20.707,19.721c0.555-7.58-2.342-29.335-2.342-29.335c-7.95-1.91-19.104,1.356-19.104,1.356
					s-2.835,19.413-0.493,38.702c2.342,19.289,11.278,21.816,19.351,19.597c4.405-1.211,10.826-4.549,15.753-7.333
					c4.064-16.949,10.623-21.632,10.623-21.632l-3.451,17.379c-0.322,1.62-0.866,6.537-1.252,11.028
					c23.975,3.853,48.091-6.076,54.128-12.63c6.471-7.025,3.636-14.236,5.423-14.298c1.787-0.062,11.833,28.41,11.833,28.41
					l-43.291,11.63l10.464,25.49c0,0,2.383,4.109,3.739,5.218c1.356,1.109,12.387-0.986,26.623-7.149
					c14.236-6.163,30.752-17.502,32.046-25.637C441,239.243,439.767,226.178,432.31,211.017z"/>
			</g>
			<path style="fill:#FFCCB3;" d="M375.983,101.321c0,0-1.171,10.661,8.381,12.079c0,0-0.74,10.168,0.863,15.037
				c0,0-1.541,9.306,0.493,9.737c2.034,0.431,3.821-7.518,3.821-7.518s4.992-1.541,8.012,2.342
				c3.02,3.883,0.781,15.201-12.079,11.709c0,0,0.164,5.259-2.013,7.19c-2.177,1.931-15.181,10.502-22.761,10.746
				c-7.58,0.244-14.79-7.768-16.639-17.936c-1.849-10.169,0-19.104,0-19.104s4.314,6.286,16.393-1.109
				C372.532,117.098,375.983,101.321,375.983,101.321z"/>
			<g>
				<g>
					<path style="fill:#FFFFFF;" d="M358.819,232.408c0,0-6.747,4.862-8.288,12.751s-1.695,18.303,6.348,22.864
						c8.042,4.56,17.954-1.869,17.954-1.869s-0.472-1.797,0-3.307c0.473-1.51,20.132-13.928,22.72-16.023
						c2.588-2.095,12.572-8.997,12.572-8.997s-3.975-2.65-9.799-1.972c-5.824,0.678-11.339-0.555-14.421-3.266
						c-3.081-2.712-3.081-2.712-3.081-2.712L358.819,232.408z"/>
					<path style="fill:#FFD150;" d="M356.971,225.931c0,0-1.171,8.166-1.078,8.689c0.092,0.524,4.684,3.236,13.866,3.205
						c9.182-0.031,16.485-4.283,16.886-5.053c0.401-0.77-2.835-7.457-2.835-7.457L356.971,225.931z"/>
					<g>
						<g>
							<path style="fill:#D3D2CD;" d="M361.686,202.554c-0.641-1.253-1.565-2.439-2.371-3.354c-1.118,2.605-2.281,6.912-2.344,8.736
								c2.229-1.561,6.272-1.561,6.272-1.561S363.062,205.245,361.686,202.554z"/>
							<path style="fill:#D3D2CD;" d="M380.831,202.431c-1.5,2.609-1.849,3.698-1.849,3.698s5.629,0.164,7.108,1.808
								c0,0-0.629-5.752-1.731-8.773C382.993,200.057,381.53,201.215,380.831,202.431z"/>
							<path style="fill:#FFFFFF;" d="M378.982,206.128c0,0,0.349-1.089,1.849-3.698c0.699-1.215,2.162-2.373,3.528-3.268
								c-0.306-0.838-0.647-1.467-1.022-1.703c-1.726-1.089-7.436,6.307-8.094,7.847c0,0-4.93-1.479-8.34-0.452
								c0,0-4.93-7.683-6.122-7.765c-0.39-0.027-0.923,0.843-1.467,2.11c0.806,0.915,1.73,2.101,2.371,3.354
								c1.376,2.691,1.557,3.821,1.557,3.821s-4.043,0-6.272,1.561c0,0-4.982,9.46-5.228,13.029s2.506,9.629,16.146,9.691
								c13.64,0.062,19.967-4.191,21.364-6.943c1.397-2.753-0.555-12.017-3.164-15.777
								C384.611,206.292,378.982,206.128,378.982,206.128z"/>
						</g>
						<path style="fill:#2B2B2B;" d="M366.945,220.96c1.018-0.252,2.219-1.602,2.219-2.095s-3.615-0.698-3.862-0.288
							C365.055,218.988,366.449,221.083,366.945,220.96z"/>
						<path style="fill:#2B2B2B;" d="M359.919,215.454c1.499,0.038,2.403,1.458,2.835,1.274c0.431-0.185,0.637-0.924,0.37-1.274
							c-0.267-0.349-1.787-1.274-3.205-1.191c-1.418,0.082-3.205,2.272-2.917,2.481C357.29,216.954,358.317,215.413,359.919,215.454
							z"/>
						<path style="fill:#2B2B2B;" d="M376.957,215.454c-1.678,0.038-2.69,1.458-3.173,1.274c-0.483-0.185-0.713-0.924-0.414-1.274
							c0.299-0.349,2-1.274,3.586-1.191c1.586,0.082,3.586,2.272,3.264,2.481C379.9,216.954,378.75,215.413,376.957,215.454z"/>
					</g>
				</g>
				<path style="fill:#FFCCB3;" d="M374.833,266.153c0,0-3.615,1.356-4.93-0.74c-1.315-2.095-3.369-11.175-5.588-10.764
					c-2.219,0.411,0,9.614,0,9.614s-8.135-15.078-10.025-14.298c-1.89,0.781,5.341,13.965,5.341,13.965s-9.737-13.226-11.586-11.829
					c-1.849,1.397,9.039,14.482,9.039,14.482s-8.587-9.52-10.189-8.324c-1.602,1.196,5.218,8.591,9.367,11.508
					c0,0-4.396-2.383-7.149-4.684c-2.753-2.301-3.601-1.191-2.458,0.986c1.143,2.178,6.361,6.697,12.811,8.874
					c6.45,2.177,12.613,1.767,17.831,0C377.298,274.945,375.203,269.563,374.833,266.153z"/>
			</g>
			<g>
				<path style="fill:#E5906E;" d="M357.8,131.986c2.101-0.148,3.134,7.633,2.279,8.286c-0.855,0.653-3.74,0.771-4.488,0
					C354.844,139.502,355.272,132.165,357.8,131.986z"/>
				<path style="fill:#191919;" d="M369.235,130.996c-1.643,0.123-1.643-4.067,0-4.108S370.878,130.872,369.235,130.996z"/>
				<path style="fill:#EA5E6F;" d="M374.547,121.481c0.427,0.189,1.369-1.54,1.584-1.939c0.214-0.399-2.373-3.829-3.289-3.618
					c-0.916,0.211-1.758,1.699-1.938,2.386C370.723,118.997,373.686,121.101,374.547,121.481z"/>
				<path style="fill:#191919;" d="M350.613,133.051c-1.643,0.123-1.643-4.067,0-4.109
					C352.257,128.902,352.257,132.928,350.613,133.051z"/>
				<path style="fill:#E5906E;" d="M389.106,141.092c-0.698-0.891,3.41-7.423,4.437-6.971c1.027,0.452-2.258,5.67-2.258,5.67
					s2.656-0.357,2.457,0.684C393.544,141.516,389.106,141.092,389.106,141.092z"/>
				<g>
					<path style="fill:#191919;" d="M376.078,144.013c0.467-2.496,0.356-4.669-0.074-4.756c-0.885-0.179-5.908,1.448-10.031,4.256
						c-4.123,2.808-5.547,4.418-5.399,4.949c0.105,0.378,3.213,3.165,6.983,3.543c0.544-1.561,1.327-3.359,2.434-4.999
						C371.476,144.806,374.047,144.155,376.078,144.013z"/>
					<path style="fill:#FF888E;" d="M369.99,147.007c-1.107,1.64-1.889,3.438-2.434,4.999c1.533,0.153,3.171-0.08,4.767-1.054
						c2.118-1.291,3.26-4.297,3.754-6.939C374.047,144.155,371.476,144.806,369.99,147.007z"/>
				</g>
			</g>
		</g>
	</g>
	<g>
		<ellipse style="fill:#CFD6E5;" cx="180.084" cy="453.882" rx="118.066" ry="6.826"/>
		<g>
			<g>
				<g>
					<path style="fill:#C16240;" d="M113.104,383.984H94.041c0,0,1.711,44.647,2.718,62.299l10.265-5.931L113.104,383.984z"/>
					<path style="fill:#191919;" d="M117.213,447.583c-2.136-2.629-10.189-7.231-10.189-7.231l-10.265,5.931
						c0.241,4.229,0.442,6.915,0.569,7.059c0.657,0.747,17.42,0.321,19.885,0C119.678,453.022,119.349,450.213,117.213,447.583z"/>
				</g>
				<g>
					<path style="fill:#C16240;" d="M152.381,383.984h-19.063c0,0,1.711,44.647,2.718,62.299l10.265-5.931L152.381,383.984z"/>
					<path style="fill:#191919;" d="M156.49,447.583c-2.136-2.629-10.189-7.231-10.189-7.231l-10.265,5.931
						c0.241,4.229,0.442,6.915,0.569,7.059c0.657,0.747,17.42,0.321,19.885,0S158.626,450.213,156.49,447.583z"/>
				</g>
				<g>
					<path style="fill:#36BCC6;" d="M158.855,306.53c-6.82,3.436-18.819,8.396-34.247,10.363
						c-14.397,1.836-28.155-0.407-37.117-2.59c-0.152,11.214-0.312,26.261-0.352,42.073c-0.082,32.128,1.972,48.809,1.972,48.809
						s18.899,5.588,28.431-1.15c0,0,6.273-37.723,6.697-45.481l1.233-22.556c0,0,9.491-7.334,10.477-6.532
						c0.986,0.801-4.437,10.107-4.437,10.107s2.643,18.242,4.557,37.716c1.141,11.608,1.58,21.55,1.748,27.689
						c2.318,0.231,4.983,0.267,7.828-0.121c9.038-1.232,11.997-3.451,11.997-3.451s3.122-52.178,2.301-71.159
						C159.549,321.193,159.158,312.819,158.855,306.53z"/>
					<path style="fill:#258399;" d="M124.608,316.893c15.428-1.967,27.427-6.927,34.247-10.363
						c-0.332-6.899-0.557-11.288-0.557-11.288H87.796c0,0-0.148,7.49-0.305,19.062C96.453,316.486,110.211,318.728,124.608,316.893z
						"/>
					<path style="fill:#258399;" d="M131.51,339.572c0,0,5.423-9.306,4.437-10.107c-0.986-0.801-10.477,6.532-10.477,6.532
						l-1.233,22.556l5.136,44.495c0,0,3.396,1.427,8.441,1.929c-0.169-6.139-0.607-16.081-1.748-27.689
						C134.154,357.813,131.51,339.572,131.51,339.572z"/>
				</g>
				<g>
					<path style="fill:#191919;" d="M232.024,222.172c0,0,3.064,3.759,5.076,3.821c2.012,0.062,19.329-11.832,19.575-13.928
						c0.246-2.095-14.606-34.265-18.365-35.374c-3.759-1.109-24.281,11.771-24.528,15.407
						C213.536,195.734,226.949,218.351,232.024,222.172z"/>
					<path style="fill:#C16240;" d="M216.001,220.314c0,0,4.807-2.833,4.807-6.342c0-3.509-4.067-9.056-2.403-12.876
						c1.664-3.821,5.053-10.415,5.978-9.737c0.924,0.678,3.081,5.423,0,10.107c0,0,2.773,1.602,4.191,6.409
						c1.417,4.807,0,9.737,0,9.737l3.451,4.56l-8.751,7.272L216.001,220.314z"/>
					<path style="fill:#C16240;" d="M236.215,191.31c0,0,0.801-3.649-1.479-4.758c-2.28-1.109-8.628,9.86-6.779,11.586
						c1.849,1.725,6.286-3.574,6.286-3.574s-4.387,7.395-2.255,9.305s5.706-4.499,5.706-4.499s-4.376,8.751-1.479,9.984
						c2.896,1.233,5.177-5.485,5.177-5.485s-2.65,8.32,0,8.936c2.65,0.616,6.163-5.731,4.93-9.614
						c-1.233-3.883-3.698-2.588-3.698-2.588s0.924-4.56-1.109-5.423c-2.034-0.863-2.958,0.986-2.958,0.986
						S241.083,190.152,236.215,191.31z"/>
				</g>
				<g>
					<g>
						<path style="fill:#C16240;" d="M120.664,188.421c9.902-0.62,14.175-6.842,16.02-12.206c-2.778-1.006-4.935-2.07-5.995-3.406
							c-2.055-2.59-2.99-6.752-3.519-11.145c-1.588,1.21-3.972,2.548-7.081,2.928c-2.586,0.317-5.122-0.936-7.182-2.468
							c-0.481,3.718-1.219,6.805-2.35,7.974c-1.532,1.583-5.205,3.359-9.565,5.498C103.256,180.979,108.687,189.171,120.664,188.421
							z"/>
						<path style="fill:#893820;" d="M120.089,164.592c3.109-0.381,5.493-1.719,7.081-2.928c-0.528-4.389-0.652-9.008-1.083-12.52
							c-0.863-7.025-0.863-7.025-0.863-7.025l-11.463-0.123c0,0,0.236,11.694-0.855,20.128
							C114.967,163.656,117.503,164.908,120.089,164.592z"/>
						<path style="fill:#FFA440;" d="M150.861,203.869c-1.109,0.062,3.205,22.555,3.205,22.555s3.266,4.631,7.799,10.335
							c-0.634-4.431-1.667-10.679-2.992-15.265C156.593,213.606,151.971,203.807,150.861,203.869z"/>
						<path style="fill:#FFA440;" d="M127.443,258.347c-19.598-3.574-27.486-13.311-27.486-13.311s2.527-30.629,0.493-31.06
							c-2.034-0.431-17.44,38.332-16.886,40.427c0.555,2.095,35.744,15.777,35.744,15.777s0.493,4.314-1.726,9.984
							s-2.835,7.149-2.835,7.149s-18.118,0.616-32.169-5.177c0,0-2.958,16.165-2.095,17.512c0.863,1.346,22.309,7.632,43.385,6.77
							s36.73-6.039,38.702-7.888c1.194-1.119-1.328-22.531-4.017-42.149C151.542,258.351,139.788,260.599,127.443,258.347z"/>
						<path style="fill:#FFD150;" d="M215.323,216.441l-23.665,12.572c0,0-16.639-31.169-26.5-40.544
							c-7.316-6.956-20.486-9.361-28.475-12.254c-1.845,5.365-6.117,11.586-16.02,12.206c-11.977,0.75-17.408-7.442-19.672-12.826
							c-6.162,3.024-13.701,6.777-18.537,11.757c-8.258,8.505-19.104,46.713-21.693,58.669c-2.588,11.956-4.93,19.228,2.958,25.39
							c7.888,6.163,18.858,10.723,18.858,10.723c14.051,5.793,32.169,5.177,32.169,5.177s0.616-1.479,2.835-7.149
							s1.726-9.984,1.726-9.984s-35.189-13.681-35.744-15.777c-0.555-2.095,14.852-40.859,16.886-40.427
							c2.034,0.431-0.493,31.06-0.493,31.06s7.888,9.737,27.486,13.311c12.345,2.252,24.099,0.004,31.111-1.968
							c-1.752-12.784-3.575-24.806-4.488-29.955c0,0-4.314-22.494-3.205-22.555c1.109-0.062,5.731,9.737,8.012,17.625
							c1.326,4.586,2.359,10.834,2.992,15.265c7.096,8.929,17.306,20.494,23.019,21.095c9.363,0.986,41.779-24.897,41.779-24.897
							S221.363,220.261,215.323,216.441z"/>
					</g>
				</g>
				<g>
					<path style="fill:#191919;" d="M113.187,145.364c0,0-1.972,2.26-6.574,2.465c-4.602,0.205-5.67-4.684-5.67-4.684
						s-7.354,0.986-11.011-5.259c-3.657-6.245,0-15.037,0-15.037s-5.752-2.342-5.505-9.45c0.246-7.108,5.752-8.628,5.752-8.628
						s-2.424-5.875-0.329-11.915c2.095-6.039,7.806-5.998,7.806-5.998s-1.726-13.476,10.189-20.132
						c11.915-6.656,19.295,4.848,19.295,4.848s7.328-8.669,16.695-5.423c9.367,3.246,10.025,11.997,10.025,11.997
						s8.998-1.274,12.49,7.478c3.492,8.751-0.575,14.133-0.575,14.133s5.012,2.178,4.355,12.079
						c-0.657,9.901-7.971,12.243-7.971,12.243s2.671,6.299-1.232,11.449c-3.903,5.15-13.311,4.903-13.311,4.903L113.187,145.364z"/>
					<path style="fill:#C16240;" d="M117.706,127.122c-0.463,0.69,2.671,10.271,1.397,11.668c-1.274,1.397-4.725,1.561-5.259,0
						c-0.534-1.561-0.575-8.71-0.575-8.71s-2.72-6.692-8.427-4.599c-5.707,2.093-6.076,10.022-3.159,13.391
						c2.917,3.369,7.886,2.219,7.886,2.219s1.317,5.053,5.097,8.71c3.78,3.657,17.256,7.354,21.857,6.491
						c4.602-0.863,14.708-10.353,17.091-21.939c2.383-11.586-1.479-34.429-1.479-34.429s-2.013,1.89-6.163,0.986
						s-5.916-5.505-5.916-5.505s-0.082,5.3-6.245,6.409c-6.163,1.109-8.894-2.629-8.894-2.629s-0.473,4.885-2.363,7.578
						c-1.89,2.693-4.766,3.844-4.766,3.844S122.718,119.645,117.706,127.122z"/>
					<g>
						<path style="fill:#893820;" d="M134.633,143.474c0.351-0.368-2.917-1.684-5.012-3.78c-2.095-2.095-3.287-4.807-4.437-4.026
							s1.685,4.15,3.533,5.67C130.565,142.858,133.77,144.378,134.633,143.474z"/>
						<path style="fill:#893820;" d="M141.864,125.972c-2.423-0.171-3.615,8.805-2.629,9.559c0.986,0.754,4.314,0.89,5.177,0
							C145.274,134.641,144.781,126.177,141.864,125.972z"/>
						<path style="fill:#191919;" d="M130.689,125.479c1.643,0.123,1.643-4.067,0-4.108
							C129.045,121.329,129.045,125.356,130.689,125.479z"/>
						<path style="fill:#191919;" d="M125.594,113.729c-0.551-0.02-0.656-2.342-0.677-2.876c-0.021-0.534,4.498-2.835,5.361-2.136
							c0.863,0.699,0.986,2.712,0.822,3.533C130.935,113.071,126.703,113.77,125.594,113.729z"/>
						<path style="fill:#191919;" d="M149.505,125.479c1.643,0.123,1.643-4.067,0-4.108S147.862,125.356,149.505,125.479z"/>
						<path style="fill:#191919;" d="M151.677,110.047c0.341,0.433-1.362,2.015-1.756,2.376s-5.071-1.599-5.096-2.709
							c-0.025-1.11,1.431-2.505,2.164-2.911C147.722,106.397,150.991,109.174,151.677,110.047z"/>
						<path style="fill:#893820;" d="M109.489,136.148c0.699-0.891-3.41-7.423-4.437-6.971c-1.027,0.452,2.258,5.67,2.258,5.67
							s-2.656-0.357-2.457,0.684C105.052,136.572,109.489,136.148,109.489,136.148z"/>
					</g>
				</g>
				<path style="fill:#191919;" d="M140.049,358.301c-18.457,0-26.914-7.049-30.787-13.398c-6.944-11.385-4.534-28.926,6.289-45.775
					c10.446-16.265,37.43-22.657,61.239-28.295c16.398-3.884,31.887-7.552,40.599-13.841c21.108-15.235,18.782-36.348,18.756-36.56
					l1.909-0.238c0.028,0.223,2.525,22.431-19.538,38.358c-9.023,6.513-24.693,10.224-41.283,14.153
					c-23.454,5.554-50.037,11.85-60.064,27.461c-10.263,15.979-12.723,33.146-6.265,43.734c5.888,9.656,18.663,13.832,36.948,12.086
					c21.234-2.032,37.569-5.49,51.982-8.539c17.599-3.725,31.501-6.667,46.818-5.434c27.602,2.224,38.684,9.65,39.143,9.965
					l-1.089,1.587c-0.109-0.074-11.199-7.457-38.208-9.633c-15.038-1.213-28.818,1.705-46.266,5.397
					c-14.463,3.061-30.855,6.531-52.197,8.572C145.185,358.174,142.527,358.301,140.049,358.301z"/>
				<path style="fill:#C16240;" d="M119.315,272.513c0,0-1.342,6.724-2.955,10.762l10.343,1.572c0,0,1.972,4.252,8.012,5.177
					c0,0,1.232,9.244,3.821,9.614c2.588,0.37,0.616-10.23,0.616-10.23s2.465,10.477,5.546,9.491
					c3.081-0.986-1.849-11.567-1.849-11.567s5.423,8.301,7.272,6.76c1.849-1.541-3.944-9.86-3.944-9.86s5.053,6.841,6.779,4.684
					c1.726-2.157-4.93-11.586-7.888-12.326C142.11,275.849,119.315,272.513,119.315,272.513z"/>
			</g>
			<g>
				<path style="fill:#191919;" d="M250.328,401.404c0,0-4.273,19.967-5.095,30.896c-0.822,10.928-0.822,21.874,0,22.071
					c0.822,0.197,12.079,0.214,13.476,0c1.397-0.214,1.561-6.787-5.423-7.609c0,0,3.92-16.187,6.192-23.336
					c2.272-7.149,7.12-19.721,7.12-19.721L250.328,401.404z"/>
				<path style="fill:#191919;" d="M187.879,373.467c0,0-12.079,23.583-15.941,41.167c-3.862,17.584-5.341,37.716-4.437,38.209
					c0.904,0.493,12.572,0.822,14.462,0c1.89-0.822,1.561-6.902-3.287-8.71c0,0,4.026-17.091,8.381-22.843
					c4.355-5.752,10.682-12.819,10.682-12.819L187.879,373.467z"/>
				<path style="fill:#2B2B2B;" d="M192.645,364.757c0,0-13.722-8.135-6.409-20.378c7.313-12.243,23.418-19.639,24.487-22.679
					c1.068-3.04-4.355-4.93-11.668-4.108c-7.313,0.822-14.17,8.053-14.17,8.053s3.25-5.505,0-6.245
					c-3.25-0.74-16.48,8.71-16.562,24.98c-0.082,16.27,11.638,24.487,21.267,24.158L192.645,364.757z"/>
				<path style="fill:#2B2B2B;" d="M298.15,308.388c0,0,3.78-16.352,6.574-16.27c2.794,0.082,4.848,15.211,3.287,22.19
					L298.15,308.388z"/>
				<g>
					<path style="fill:#191919;" d="M262.489,315.537c0.651-0.499,0.704-1.934,0.612-3.18c-3.56,0.188-6.578-0.025-7.514,0.824
						c-0.544,0.493-0.743,2.398-0.731,4.523c0.427,0.317,0.843,0.574,1.142,0.626C256.942,318.495,261.256,316.482,262.489,315.537z
						"/>
					<path style="fill:#2B2B2B;" d="M263.762,386.408c0,0-7.395,1.294-19.228,3.574c-11.832,2.28-31.553-3.574-31.553-3.574
						s2.219,5.916,3.081,11.339c0,0,8.956-0.904,15.859,2.773c6.902,3.677,22.186,10.168,30.238,6.717c0,0-1.171-6.594-1.109-10.723
						C261.112,392.386,263.762,386.408,263.762,386.408z"/>
					<path style="fill:#3A3A3A;" d="M310.804,323.836c-0.493-7.067-1.315-12.49-6.573-15.777c-5.259-3.287-8.71-5.094-8.71-5.094
						s-0.246-9.943-5.094-14.791c-0.732-0.731-7.195,6.553-8.761,16.105c0,0-1.511,0.575-5.619,3.616
						c-4.109,3.04-5.177,3.533-9.943,4.191c-1.022,0.141-2.032,0.22-3.004,0.271c0.093,1.246,0.039,2.681-0.612,3.18
						c-1.232,0.945-5.546,2.958-6.491,2.794c-0.299-0.052-0.715-0.31-1.142-0.626c0.014,2.533,0.329,5.381,0.731,6.543
						c0.74,2.136,1.972,6.081,3.122,6.491c1.15,0.411,7.642,0.904,11.832,4.108c4.191,3.204,4.8,5.815,3.698,10.353
						c-1.103,4.539-9.08,13.311-17.831,15.694c-8.751,2.383-20.953-0.781-29.663-3.944c-8.71-3.164-15.325-4.807-22.432-3.04
						c-7.108,1.767-17.256,7.231-19.063,20.542c-1.808,13.311,3.533,25.226,6.409,33.197c2.876,7.97-0.411,22.186-1.972,28.924
						c-1.561,6.738-3.205,15.859-2.794,16.763c0.411,0.904,11.504,1.068,13.804,0c2.301-1.068,1.15-6.081-2.301-8.381
						c0,0,8.464-13.722,11.175-19.228c2.712-5.505,9.285-14.79,6.491-27.979c-0.863-5.423-3.081-11.339-3.081-11.339
						s19.721,5.854,31.553,3.574c11.832-2.28,19.228-3.574,19.228-3.574s-2.65,5.978-2.712,10.107
						c-0.062,4.129,1.109,10.723,1.109,10.723s3.615,10.764,5.259,16.845c1.643,6.081,0.493,29.255,1.808,29.993
						c1.315,0.738,11.915-0.163,13.969,0c2.054,0.163,2.054-3.863,0.493-6.328c-1.561-2.465-4.93-2.629-4.93-2.629
						s1.643-25.719,5.752-43.55c4.108-17.831,12.736-38.045,14.462-46.015c0,0,3.78-5.998,4.766-9.039
						c0.986-3.04,1.808-8.381,1.808-8.381s3.287,5.259,4.273,5.094C310.804,343.064,311.297,330.903,310.804,323.836z"/>
				</g>
				<path style="fill:#FF485E;" d="M273.746,342.406c-0.899,0.058-2.013,6.409-1.643,6.984c0.37,0.575,8.094,0.986,15.53,4.355
					c7.436,3.369,10.559,6.08,11.257,5.67c0.698-0.411,3.081-5.916,2.794-7.067S291.536,341.256,273.746,342.406z"/>
				<path style="fill:#191919;" d="M278.245,312.887c-2.617-0.625-3.605,1.479-4.314,0.863c-0.709-0.616-0.123-1.602,1.602-2.28
					c1.726-0.678,2.742-0.524,4.067,0c1.325,0.524,2.496,3.389,1.91,3.821S280.956,313.534,278.245,312.887z"/>
			</g>
		</g>
	</g>
</g>
</svg>
