<svg xmlns="http://www.w3.org/2000/svg" fill="none" viewBox="0 0 1034 200" id="iconscout">
  <g fill="#595bd4" clip-path="url(#a)" class="color000000 svgShape">
    <path d="M592.403 160.351h-8.234v28.562h8.234v-28.562zm0-9.41h-8.234v6.317h8.234v-6.317zm-179.538 0h-8.603v37.972h26.276v-7.279h-17.673v-30.693zm34.676 7.037c-9.155 0-16.406 6.976-16.406 15.77 0 8.796 7.251 15.771 16.406 15.771 9.217 0 16.469-6.975 16.469-15.771 0-8.794-7.251-15.77-16.469-15.77zm0 24.02c-4.609 0-8.049-3.458-8.049-8.25 0-4.731 3.44-8.249 8.049-8.249s8.049 3.518 8.049 8.249c0 4.793-3.44 8.25-8.049 8.25zm50.996.485c-1.475 0-2.766-.848-2.766-3.457V166.9h7.851v-6.549h-7.851v-8.232h-8.234v8.232h-10.808v-8.232h-8.234v8.232h-4.485v6.549h4.485v12.246c0 6.854 3.318 10.373 9.463 10.373 3.256 0 5.961-1.092 7.804-2.305l-2.336-6.005c-.246.183-1.965 1.274-3.933 1.274-1.474 0-2.765-.848-2.765-3.457V166.9h10.808v12.246c0 6.854 3.318 10.373 9.463 10.373 3.256 0 5.959-1.092 7.804-2.305l-2.336-6.005c-.243.183-1.964 1.274-3.93 1.274zm52.048-10.889c-1.256-8.524-8.788-14.553-17.059-13.365-8.938 1.284-14.722 9.224-13.449 17.869 1.459 9.904 10.083 14.489 18.961 13.213 3.952-.567 7.746-2.215 10.823-4.925l-3.889-5.326c-2.029 1.824-4.946 3.101-7.865 3.52-4.013.577-7.771-.907-9.354-4.908l22.074-3.17a26.035 26.035 0 0 0-.242-2.908zm-22.74.751c.234-3.895 2.902-6.853 6.428-7.36 3.709-.532 7.122 1.552 8.288 5.246l-14.716 2.114zm112.106-.751c-1.257-8.524-8.788-14.553-17.059-13.365-8.938 1.284-14.723 9.224-13.45 17.869 1.46 9.904 10.084 14.489 18.962 13.213 3.952-.567 7.746-2.215 10.823-4.925l-3.89-5.326c-2.028 1.824-4.945 3.101-7.864 3.52-4.013.577-7.771-.907-9.354-4.908l22.074-3.17c0-.001-.031-1.468-.242-2.908zm-22.74.751c.233-3.895 2.902-6.853 6.428-7.36 3.71-.532 7.122 1.552 8.287 5.246l-14.715 2.114zm-11.288-21.404h-8.235v37.972h8.235v-37.972zm51.078 18.987c-2.826-.607-5.408-1.152-5.408-2.851 0-1.273 1.782-2.123 3.687-2.123 2.704 0 5.53.667 8.542 2.123l2.765-6.066c-3.195-1.819-6.391-3.032-11.43-3.032-5.776 0-11.921 3.275-11.921 9.463 0 5.823 4.978 7.825 11.06 9.402 2.643.728 5.285 1.152 5.285 2.972 0 1.819-3.134 2.547-5.039 2.547-4.609 0-7.497-1.638-9.586-3.215l-2.949 6.248c1.72 1.577 5.959 4.124 12.534 4.124 5.715 0 13.396-2.487 13.396-9.947.001-6.188-5.714-8.432-10.936-9.645zm-140.647-9.577h-8.235v28.562h8.235v-28.562zm0-9.41h-8.235v6.317h8.235v-6.317zm37.735 37.972h8.586V173.4h14.563v-7.205h-14.563v-7.989h17.69v-7.265h-26.276v37.972zM265.408 165.21h-4.791v-6.548h4.791v-1.999c0-7.033 3.93-10.064 9.15-10.064 2.764 0 5.835.789 7.984 1.88l-2.334 6c-.677-.302-2.029-.908-3.441-.908-1.718 0-3.133.849-3.133 4.001v1.091h7.677v6.548h-7.677v23.704h-8.228V165.21h.002zm18.552-6.608h8.106v5.819c.861-2.485 3.991-6.425 10.748-6.425v8.851c-7.124 0-10.624 3.213-10.624 10.427v11.64h-8.23v-30.312zm19.384 15.156c0-8.79 7.247-15.762 16.399-15.762 9.212 0 16.458 6.972 16.458 15.762 0 8.791-7.246 15.763-16.458 15.763-9.152-.002-16.399-6.972-16.399-15.763zm24.444 0c0-4.728-3.44-8.245-8.045-8.245-4.607 0-8.045 3.517-8.045 8.245 0 4.79 3.439 8.244 8.045 8.244 4.605 0 8.045-3.454 8.045-8.244zm11.084-15.156h8.045v4.062c1.78-2.729 5.403-4.668 9.088-4.668 4.853 0 7.862 1.999 9.457 5.394 2.212-3.636 6.45-5.394 9.95-5.394 8.659 0 11.362 5.88 11.362 13.639v17.277h-8.23v-16.247c0-4-.983-6.972-5.344-6.972-4.054 0-6.264 3.213-6.264 7.215v16.004h-8.231v-16.247c0-4-.922-6.972-5.343-6.972-4.178 0-6.264 3.516-6.264 7.517v15.702h-8.231v-30.31h.005zM260.617 16.02h25.589v113.177h-25.589V16.02zm37.007 68.071c0-26.16 21.566-46.91 48.799-46.91 12.611 0 23.576 4.15 32.716 11.547l-14.805 16.96c-4.204-3.789-10.052-6.134-17.364-6.134-14.256 0-24.49 10.284-24.49 24.537 0 14.072 9.685 24.537 25.22 24.537 7.676 0 15.171-2.887 19.922-7.397l12.978 18.041c-8.774 7.397-21.019 11.727-34.178 11.727-27.233 0-48.798-20.747-48.798-46.908zm83.397 0c0-26.16 21.566-46.91 48.8-46.91 27.414 0 48.982 20.75 48.982 46.91 0 26.161-21.568 46.908-48.982 46.908-27.234 0-48.8-20.747-48.8-46.908zm72.741 0c0-14.073-10.234-24.537-23.941-24.537-13.708 0-23.942 10.464-23.942 24.537 0 14.254 10.234 24.537 23.942 24.537 13.707 0 23.941-10.284 23.941-24.537zm34.213-45.105h23.942v12.088c7.311-9.923 17.729-13.892 28.878-13.892 24.126 0 32.534 15.335 32.534 40.053v51.96h-24.492V80.301c0-13.17-3.472-20.206-15.901-20.206-12.245 0-20.469 9.743-20.469 23.454v45.646h-24.492V38.986zm93.574 76.317 9.323-19.485c9.504 6.855 20.836 12.81 38.93 12.81 9.869 0 21.932-4.51 21.932-13.712 0-9.021-10.601-11.367-21.02-13.892-22.114-5.052-44.961-12.449-44.961-36.807 0-22.551 21.385-33.738 44.047-33.738 17.912 0 31.438 4.691 43.317 12.449l-9.321 19.485c-9.503-6.134-21.931-9.382-33.994-9.382-6.215 0-17.911 2.345-17.911 11.185 0 7.578 8.59 10.284 20.287 12.991 21.019 4.871 46.241 12.63 46.241 37.707 0 25.259-24.857 36.264-48.617 36.264-28.33.002-41.672-10.643-48.253-15.875zM684.54 84.091c0-26.16 21.566-46.91 48.8-46.91 12.611 0 23.577 4.15 32.716 11.547l-14.805 16.96c-4.204-3.789-10.053-6.134-17.365-6.134-14.255 0-24.49 10.284-24.49 24.537 0 14.072 9.686 24.537 25.222 24.537 7.677 0 15.171-2.887 19.922-7.397l12.978 18.041c-8.774 7.397-21.019 11.727-34.178 11.727-27.234 0-48.8-20.747-48.8-46.908zm83.397 0c0-26.16 21.565-46.91 48.799-46.91 27.416 0 48.983 20.75 48.983 46.91 0 26.161-21.569 46.908-48.983 46.908-27.232 0-48.799-20.747-48.799-46.908zm72.742 0c0-14.073-10.235-24.537-23.942-24.537s-23.942 10.464-23.942 24.537c0 14.254 10.235 24.537 23.942 24.537s23.942-10.284 23.942-24.537zm33.261 8.842V38.987h24.491v50.698c0 12.628 5.485 18.402 16.816 18.402 12.793 0 19.006-10.645 19.006-22.913V38.987h24.491v90.21h-23.029v-12.63C930.233 125.408 917.804 131 907.203 131c-25.222 0-33.263-14.615-33.263-38.067zm108.034 7.215V58.47h-13.341V38.985h13.341V19.529h24.496v19.456h19.95V58.47h-19.95v41.317c0 7.758 3.83 10.284 8.22 10.284 5.85 0 10.97-3.248 11.7-3.789l6.94 17.862c-5.48 3.608-13.52 6.855-23.21 6.855-18.277 0-28.146-10.464-28.146-30.851z" fill="#595bd4" class="color000000 svgShape"></path>
    <path fill-rule="evenodd" d="m184.203 24.455 30.251 49.048a50.398 50.398 0 0 1 0 52.994l-30.251 49.048C174.837 190.732 158.127 200 140.116 200h-58.25c-18.011 0-34.72-9.268-44.087-24.455L7.528 126.497a50.397 50.397 0 0 1 0-52.994l30.25-49.048C47.147 9.268 63.856 0 81.867 0h58.25c18.011 0 34.721 9.268 44.087 24.455Zm-46.569 90.798 33.492 29.925a9.934 9.934 0 0 1 .685 14.133 10.126 10.126 0 0 1-7.016 3.269c-2.72.108-5.316-.798-7.316-2.596l-35.402-31.637-1.258.604c-6.264 3.006-12.989 4.531-19.986 4.531-26.383 0-47.639-22.098-45.765-48.528 1.558-21.996 19.392-39.944 41.645-41.87 29.333-2.541 53.656 22.36 49.542 51.569-.997 7.084-3.873 13.784-7.978 19.678l-.643.922ZM71.782 85.246c-1.84 18.204 13.598 33.441 32.04 31.622 13.651-1.347 24.691-12.247 26.056-25.723 1.845-18.208-13.598-33.45-32.042-31.626-13.652 1.35-24.69 12.25-26.054 25.727Z" clip-rule="evenodd" fill="#595bd4" class="color000000 svgShape"></path>
  </g>
  <defs>
    <clipPath id="a">
      <path fill="#53d86a" d="M0 0h1033.33v200H0z" class="colorffffff svgShape"></path>
    </clipPath>
  </defs>
</svg>
